<svg xmlns="http://www.w3.org/2000/svg" width="4096" height="4096"><path fill="#362a4a" d="m671.777 2149.58-.205-82.82c-.056-42.44-3.278-85.02 25.819-119.85 16.648-19.94 37.546-33.41 63.844-35.65 50.64-4.32 108.984-.5 160.448-.5 72.077 0 145.877-3.24 217.757.9 12.36.71 27.09 1.68 38.42 6.97 41.84 19.55 69.53 63.79 104.21 93.27 52.43 2.61 105.94.49 158.49.44l293.52-.05c44.02 0 126.1-4.7 165.29 3.43 23.57 4.89 43.38 16.65 59.29 34.65 12.47 14.12 20.66 30.28 23.15 48.94 5.24 39.25 2.59 81.07 2.61 120.64v214.85l-.03 274.51c0 47.1 2.73 95.76-.79 142.63-2.44 32.62-16.94 63.65-42.28 84.71-16.55 13.75-39 22.09-60.22 24.99-23.59 3.23-48.52 1.85-72.33 1.86l-117.29-.02-392.58.32c-.57 52.79-.72 105.59-.44 158.38l228.9-.11c42.08-.02 113.26-5.19 152.2 5.18 18.31 4.88 36.62 17.45 49.98 30.69 37.23 36.93 38.01 78.64 37.97 127.68l-.19 69.51c42.27-.24 161.04-5.48 194.49 2.77a107.43 107.43 0 0 1 48.65 27.21c12.52 12.18 24.1 31.19 27.54 48.44 6.1 30.63 2.03 86.87 2.03 119.61l.01 253.06c-.2 34.84-4.62 62.43-30.79 88.08-14.78 14.48-29.58 23.51-50.12 27.46-38.09 7.33-117.76 2.88-159.37 2.89-90.29.03-180.85 2.06-271.12.68-23.27-.35-45.14-4.66-64.08-19.15-4.31-3.08-8.46-6.28-12.31-9.94-25.3-24.11-34.24-51.71-35.43-86.01-2.55-73.45-.31-147.79-.36-221.35-.03-46.15-3.94-99.04 1.34-144.09 1.67-14.2 5.02-32.57 14.93-43.21 1.75-3.12 3.57-6.24 5.74-9.1 14.1-18.54 37.62-32.83 60.6-36.72 20.64-4.03 46.16-1.43 67.34-1.4l136.24-.03c-.74-38.37 9.22-116.86-17.1-146.74-12.48-14.18-28.35-19.43-46.6-20.05-54.76-1.87-110.16-.09-164.98-.01l-301.43.05-189.288-.18c-32.07-.04-66.257-2.39-98.09.83-12.967 1.32-25.721 7.59-34.938 16.7-30.755 30.43-21.278 108.16-21.158 149.3 66.224 1.09 146.064-4.9 210.134 1.99a90.7 90.7 0 0 1 34.76 18.04c20.83 17.5 34.02 42.02 36.35 68.95 2.42 28.01 1.03 56.79 1 84.92l-.12 144.63.06 101.61c.03 20.22 1.55 41.87-1.66 61.86-3.07 19.1-10.14 36.31-22.99 50.95-18.2 20.73-44.11 35.54-71.88 37-30.172 1.6-60.993.4-91.219.41l-167.65.23-100.888.14c-23.005.06-47.771 1.76-70.506-2.06-16.687-2.8-33.613-12.57-45.914-23.96a108.5 108.5 0 0 1-34.463-75.42c-2.729-85.57.056-171.89.044-257.54-.004-33.51-4.134-101.64.917-130.88 3.365-19.48 13.268-39.26 27.1-53.38a91.46 91.46 0 0 1 45.062-25.11c24.829-5.64 54.318-2.71 79.792-2.56 35.675.26 71.351.3 107.026.13l-.447-69.16c-.058-47.53 6.168-94.09 42.152-128.87a121.6 121.6 0 0 1 60.797-31.93c37.995-7.86 82.108-2.99 120.997-2.97l247.26.81c.38-52.71.18-105.42-.59-158.12-8.31.11-16.64-.11-24.95-.21-33.13 1.68-67.02.37-100.23.37l-186.87.01-119.582.31c-22.63.06-46.728 1.6-69.176-1.34-16.119-2.11-33.758-10.04-47.303-19.05-26.835-17.85-39.953-43.98-46.404-74.65-10.984-52.22-14.544-107.48-20.934-160.54l-29.127-226.23a6729 6729 0 0 0-17.135-129.41c-4.019-29-10.066-59.53-9.857-88.84.178-25.01 5.535-48.77 19.841-69.68 21.779-31.84 53.883-39.03 89.314-45.1"/><path fill="#362a4a" d="M1727.4 3363.17q62.58 1.305 125.19 1.11c34.28-.12 75.09-4.66 108.56 3.21 17 3.99 33.06 11.99 45.21 24.72 12.14 12.73 19.28 29.31 22.3 46.5 7.58 43 3.02 123.81 3.01 169.26-.01 69.46 3.15 140.07.28 209.38-1.21 29.23-9.69 55.26-32.09 75.47-11.53 10.4-26.3 18.48-41.69 21.18-24.41 4.29-51.19 3.03-75.93 3.19l-128.91.02-161.97.33c-24.77.03-50.47 1.54-75.15.15-5.12-.29-9.9-1.38-14.85-2.69-9.02-2.4-28.97-11.21-36.8-8.82-4.31-3.08-8.46-6.28-12.31-9.94-25.3-24.11-34.24-51.71-35.43-86.01-2.55-73.45-.31-147.79-.36-221.35-.03-46.15-3.94-99.04 1.34-144.09 1.67-14.2 5.02-32.57 14.93-43.21l5.27-.73c12.74-12.22 29.38-27.19 46.21-33.05 24.33-8.47 201.03-2.95 243.19-4.63"/><path fill="#04020A" d="M1531.5 3410.94c81.53-2.13 163.76-.36 245.35-.3 51.72.03 113.84-2.89 164.42 1.47 6.73.58 12.93 2.43 18.71 5.95 11.57 7.05 23.09 23.41 25.7 36.75 5 25.56 2.26 55.26 2.29 81.41l-.25 153.02c-.18 41.09 3.9 85.77-.92 126.31-1.48 12.45-5.19 24.5-12.88 34.57-11.69 15.3-26.59 19.31-44.64 21.6-95.8 2.55-192.62.46-288.47-.16-40.34-.26-90.35 4.28-128.97-1.41-9.32-1.37-15.01-4.86-21.98-11.09-11.23-10.04-17.05-20.08-18.1-35-5.1-72.12-1.22-149.56-1.08-222.11.08-43.31-4.06-114.52 2.76-155.29 1.39-8.37 5.06-14.26 10.73-20.46 13.08-14.29 29.3-14.66 47.33-15.26"/><path fill="#A397FC" d="M1512.7 3416.72c48.01-1.45 419.64-4.1 439.01 3.02 10.45 3.85 19.79 13.09 23.68 23.53 2.9 7.77 3.63 16.66 4.04 24.91 3 59.16.09 120.05.04 179.33-.04 54.44 2.74 110.05-.06 164.34-.5 9.6-1.32 19.32-5.7 28.03-6.8 13.5-17.52 19.19-31.26 23.96-78.02 3.53-157.35.5-235.5.53-59.54.03-121.38 3.83-180.68-.05-8.88-.58-19.35-1.9-27.36-6.09-8.46-4.43-18.55-15.18-20.69-24.74-5.79-25.81-1.86-120.02-1.87-151.07l-.05-145.57c-.01-26.47-1.41-53.63.74-80 .67-8.34 2.74-14.2 7.18-21.35 6.74-10.85 16.22-16.23 28.48-18.78"/><path fill="#595858" d="m1719.31 3546.63 37.92.13c-.15 33.9-1.47 68.31.06 102.15 1.2 26.76 2.53 11.19 11.5 21.28 7.41 8.33 4.83 24.39 4.54 34.82-19.85-.24-33.11-.36-47.95-15.21l2.93.03-1.6 1.59-1.17-2.01c-15.86 8.9-27.84 14.47-46.26 15.86-8.06-.28-16.14-.9-23.68-3.94-14.25-5.73-24.96-16.74-30.41-31.08-6.54-17.18-5.56-37.89 2.63-54.36 6.91-13.89 18.98-24.6 33.94-29.01 20.62-6.06 39.65.53 57.53 10.67z"/><path fill="#FCFCFD" d="M1672.88 3594.61c1.88-.08 3.76-.19 5.64-.16 10.1.12 24.14 2.92 31.44 10.17l-.21 3.7c-11.84 12.94-31.57-.99-47.43 6.07-5.29 2.36-8.79 6.52-10.6 11.92-3.17 9.5-2.43 31.16 2.79 39.56 4.07 6.53 10.2 10.49 17.46 12.68 11.47 3.46 20.31-1.4 30.44-6.45 3.74 1.05 6.57 4.72 8.79 7.65l-1.35 4.64c-4.81 4.81-10.49 6.87-16.93 8.71-13.72 3.91-28.74 2.91-41.09-4.65-10.99-6.73-17.74-17.87-20.38-30.32-3.12-14.74-.53-30.67 7.93-43.22 8.52-12.61 19.04-17.26 33.5-20.3"/><path fill="#FCFCFD" d="M1728.58 3556.5c4.8-.1 9.59.06 14.39.17 14.98 10.88-4.96 96.13 8.52 116.74 2.56 1.67 5.64 3.38 7.86 5.46 5.59 5.23 4.13 9.48 4.3 16.64-9.34-.74-19.44-1.7-26.66-8.32-14.68-13.44-8.57-108-8.41-130.69"/><path fill="#A397FC" d="M1716.83 3613.5c4.95 4.98 2.83 58.16 3.2 68.09l-12.11-25.94c-10.62 7.54-19.18 13.34-32.41 14.61-1.93-1.05-3.84-2.15-5.68-3.36-6.19-4.04-9.23-10.3-10.39-17.47-1.18-7.36.39-15.41 5.2-21.24 3.57-4.32 8.55-7.11 14.17-7.6 10.17-.9 17.29 5.16 24.42 11.5z"/><path fill="#595858" d="M1793.62 3550.01c6.86-.01 15.5.7 20.81 5.54 2.96 2.7 4.42 5.75 5.23 9.6 2.52 11.91-.98 31-1.22 43.51-.63 31.51-.33 63.08-.34 94.6l-32.39.39c-14.79-2.56 2.27-69.5-8.46-82.22l-7.55 1.11-2.37-2.61c-1.38-10.62-1.6-24.01 3.29-33.78 4.65-2.31 5.01-1.45 10.07.07l1.5-5.18-.1 4.26c1.21-7.51-1.57-14.06-1.4-21.58 3.27-6.37 7.29-9.42 12.93-13.71"/><path fill="#FCFCFD" d="m1776.92 3596.38 31.57-.17.1 97.53c-5.64.23-10.4.27-15.97-1.03-8.88-11.41.45-60.52-3.8-78.84-3.5-1.35-6.41-2.35-9.29-4.86-2.9-2.53-2.27-8.83-2.61-12.63"/><path fill="#FCFCFD" d="M1795.28 3560.96c5.51-2.74 12.19-.53 14.99 4.95 2.79 5.48.65 12.19-4.79 15.04a11.26 11.26 0 0 1-11.29-.5 11.26 11.26 0 0 1-5.13-10.07c.23-4.03 2.6-7.63 6.22-9.42"/><path fill="#0E0515" d="M1282.07 2011.9c52.43 2.61 105.94.49 158.49.44l293.52-.05c44.02 0 126.1-4.7 165.29 3.43 23.57 4.89 43.38 16.65 59.29 34.65 12.47 14.12 20.66 30.28 23.15 48.94 5.24 39.25 2.59 81.07 2.61 120.64v214.85l-.03 274.51c0 47.1 2.73 95.76-.79 142.63-2.44 32.62-16.94 63.65-42.28 84.71-16.55 13.75-39 22.09-60.22 24.99-23.59 3.23-48.52 1.85-72.33 1.86l-117.29-.02-392.58.32c-.57 52.79-.72 105.59-.44 158.38l228.9-.11c42.08-.02 113.26-5.19 152.2 5.18 18.31 4.88 36.62 17.45 49.98 30.69 37.23 36.93 38.01 78.64 37.97 127.68l-.19 69.51c42.27-.24 161.04-5.48 194.49 2.77a107.43 107.43 0 0 1 48.65 27.21c12.52 12.18 24.1 31.19 27.54 48.44 6.1 30.63 2.03 86.87 2.03 119.61l.01 253.06c-.2 34.84-4.62 62.43-30.79 88.08-14.78 14.48-29.58 23.51-50.12 27.46-38.09 7.33-117.76 2.88-159.37 2.89-90.29.03-180.85 2.06-271.12.68-23.27-.35-45.14-4.66-64.08-19.15 7.83-2.39 27.78 6.42 36.8 8.82 4.95 1.31 9.73 2.4 14.85 2.69 24.68 1.39 50.38-.12 75.15-.15l161.97-.33 128.91-.02c24.74-.16 51.52 1.1 75.93-3.19 15.39-2.7 30.16-10.78 41.69-21.18 22.4-20.21 30.88-46.24 32.09-75.47 2.87-69.31-.29-139.92-.28-209.38.01-45.45 4.57-126.26-3.01-169.26-3.02-17.19-10.16-33.77-22.3-46.5-12.15-12.73-28.21-20.73-45.21-24.72-33.47-7.87-74.28-3.33-108.56-3.21q-62.61.195-125.19-1.11c-42.16 1.68-218.86-3.84-243.19 4.63-16.83 5.86-33.47 20.83-46.21 33.05l-5.27.73c1.75-3.12 3.57-6.24 5.74-9.1 14.1-18.54 37.62-32.83 60.6-36.72 49.84 4.17 101.83.65 151.96 1.25 20.15.25 40.51 4.09 60.5 3.36l10.16.27c9.54.41 21.75 2.21 31.06.4 2.39-.46 4.54-.69 5.68-3.07 7.14-14.94-2.65-134.5-8.83-153.62-11.24-34.78-41.86-59.5-76.36-69.72-28.06-8.31-106.81-3.24-140.24-3.25-57.28-.01-114.6-1.07-171.87-.64-15.93.11-50.17 4.7-63.93-3.57-13.55-8.14-2.63-144.63-6.17-166.26l-6.02-4.07c25.13-5.6 91.5-1.6 120.86-1.4l318.35.81c46.44-.05 130.16 4.77 170.92-5.56 27.51-6.98 51.78-25.8 66-50.3 8.82-15.21 13.09-35.28 14.35-52.72 3.53-48.51 1.86-97.84 1.79-146.46l-.33-238.13.04-211.76c.03-50.05 5.5-119.17-6.77-166.42-8.2-31.55-43.98-53.57-74.03-60.98-35.04-8.65-131.66-3.49-173.06-3.4-119.44.28-238.96 1.11-358.4-.19-16.16-.17-71.37 2.53-82.92-4.21z"/><path fill="#1A122F" d="M821.02 3359c-.272-44.06-10.456-129.03 22.111-160.65 7.68-7.46 25.291-17.16 36.029-18.34 32.9-3.59 68.364-.97 101.596-.97l200.364.03 304.2-.07c52.98-.05 106.8-2.15 159.65.25 18.78.85 32.49 8.55 45.18 22.39 25.89 28.25 22.92 65.5 22.58 100.96-.16 16.08.19 32.37-.55 48.42-.12 2.63-.64 5.22-.77 7.82-.03.51.08 1.02.12 1.53-19.99.73-40.35-3.11-60.5-3.36-50.13-.6-102.12 2.92-151.96-1.25 20.64-4.03 46.16-1.43 67.34-1.4l136.24-.03c-.74-38.37 9.22-116.86-17.1-146.74-12.48-14.18-28.35-19.43-46.6-20.05-54.76-1.87-110.16-.09-164.98-.01l-301.43.05-189.288-.18c-32.07-.04-66.257-2.39-98.09.83-12.967 1.32-25.721 7.59-34.938 16.7-30.755 30.43-21.278 108.16-21.158 149.3 66.224 1.09 146.064-4.9 210.134 1.99-6.15 1.96-14.29 4.65-20.57 2.18 4.92.33 12.04-.5 15.8 2.65l-1.66 2.44c-35.389.38-70.785-.03-106.159-1.24-35.16-1.44-70.392-4.21-105.591-3.25"/><path fill="#FEBF57" d="M653.847 2216.34c63.241-2.6 127.356-.59 190.695-.57l354.198.05 373.7.07c60.83 0 122.48-2.28 183.23-.07 10.34.38 20.09.87 29.17 6.35 11.95 7.21 16.16 17.65 19.03 30.75 7.18 32.81 9.25 68.63 13.43 102.12l21.86 162.83 36.22 261.85c3.9 30 9.26 60.19 11.92 90.3.67 7.55 1.54 14.44-3.1 20.93-5.4 7.57-12.94 9.52-21.7 10.71l-830.78.13-203.411.04c-25.44 0-68.367 3.71-91.512-2.07-12.179-3.04-22.562-9.62-28.904-20.53-5.913-10.18-8.992-21.8-11.004-33.31-6.127-35.04-8.914-70.75-13.279-106.05l-23.091-180.26-23.529-186.96c-4.195-33.24-9.541-66.79-12.274-100.16-.776-9.47-1.722-19.89 1.332-29.03 4.542-13.6 15.664-20.95 27.799-27.12"/><path fill="#362a4a" d="M1032.32 2585.4c-3.07 8.74 65.68 64.3 72.03 83.81 1.82 5.58.56 10.87-2.03 15.89-4.29 8.31-10.71 16.51-20.09 19.15-9.08 2.56-18.91-.83-26.58-5.73-9.13-5.83-112.163-109.79-120.824-120.84-4.316-5.51-7.905-11.72-8.974-18.72-1.429-9.38 2.25-18.02 7.643-25.49 8.219-11.38 20.824-20.02 30.695-30.03 27.909-28.32 56.96-64.53 88.39-88.35 6.92-5.24 15.07-9.84 23.88-10.65 6.84-.63 13 1.24 18.15 5.83 6.69 5.96 11.6 14.47 11.54 23.57-.1 18.02-61.41 73.02-76.41 89.12 49.7-3.19 100.56-.99 150.4-.98l277.56.1c-16.66-16.82-61.99-57.86-72.55-74.77-2.45-3.93-3.7-8.33-3.85-12.95-.25-8.05 2.77-15.36 8.29-21.18 5.45-5.76 13.66-10.45 21.84-10 4.82.26 8.4 1.39 12.4 4.08 26.61 17.84 49.93 47.47 72.45 70.21 18.25 18.43 38.75 36.47 55.6 56.11 5.42 6.3 9.99 15.41 9.13 23.92-.64 6.42-5.45 12.49-9.34 17.32-12.85 15.96-103.17 111.43-115.52 119.66-9.54 6.36-21.9 8.75-33.04 5.92-8.32-2.12-15.03-6.63-18.92-14.44-3.58-7.21-1.98-17.83 1.4-24.8 10.72-22.15 65.1-57.66 69.29-74.58l-2.3-1.38c-52.65 2.16-105.96.54-158.68.54z"/><path fill="#1A122F" d="M1032.32 2585.4c.91-3.5.16-4.03 3.6-5.9 3.54-1.93 7.25-2.3 11.21-2.5 35.75-1.8 390.92-2.8 402.34 1.16 3.1 1.07 3.24 1.4 5.48 3.1-1.46 3.43-.46 2.27-2.37 3.94-52.65 2.16-105.96.54-158.68.54z"/><path fill="#1A122F" d="M1449.5 2531.33c-41.85.05-407.82 4.01-418.34-3.06-2.76-1.86-2.1-6.02-2.46-9.07l1.04 3.76c20.46 5 62.72 1.01 85.23.94l240.71-.13c29.61.25 60.46-1.76 89.88.36 5.43.39 8.55.43 12.97 3.67l-1.4 2.27z"/><path fill="#3981F1" d="M1052.59 3840.81c-4.15 6.75-8.67 14-14.54 19.37-5.78 5.29-12.77 8.72-20.55 9.82-24.014 3.4-49.871 2.02-74.11 2.19-43.58.35-87.162.41-130.743.19-68.674-.25-139.17 3.43-207.616-.63-13.628-.8-25.881-9.16-34.469-19.46-5.719-6.85-9.054-13.73-10.19-22.62-3.33-26.07-1.953-53.69-2.042-80l-.233-136.44-.071-101.28c-.021-18.69-1.507-39.09 1.055-57.6 1.724-12.45 8.118-27.03 18.947-34.16 8.455-5.57 19.411-7.4 29.312-8.13 22.666-1.67 46.586-.02 69.359.15l115.981-.07 151.359-.16c25.706-.01 56.611-3.2 81.791 2.11 8.46 1.78 15.18 6.53 19.87 13.79 8.6 13.31 9.19 38.22 5.23 53.24-.33 1.22-.7 2.43-1.05 3.64-1.84 20.89-.83 42.47-.82 63.45l.08 110.93.1 84.88c.02 14.12-1.17 29.5.61 43.47 6.01 16.48 3.42 36.02 2.74 53.32"/><path fill="#0E0515" d="M1052.59 3840.81c-4.15 6.75-8.67 14-14.54 19.37-5.78 5.29-12.77 8.72-20.55 9.82-24.014 3.4-49.871 2.02-74.11 2.19-43.58.35-87.162.41-130.743.19-68.674-.25-139.17 3.43-207.616-.63-13.628-.8-25.881-9.16-34.469-19.46-5.719-6.85-9.054-13.73-10.19-22.62-3.33-26.07-1.953-53.69-2.042-80l-.233-136.44-.071-101.28c-.021-18.69-1.507-39.09 1.055-57.6 1.724-12.45 8.118-27.03 18.947-34.16 8.455-5.57 19.411-7.4 29.312-8.13 22.666-1.67 46.586-.02 69.359.15l115.981-.07 151.359-.16c25.706-.01 56.611-3.2 81.791 2.11 8.46 1.78 15.18 6.53 19.87 13.79 8.6 13.31 9.19 38.22 5.23 53.24-.33 1.22-.7 2.43-1.05 3.64-.19-19.93 2.85-44.05-12.67-59.21-6.97-6.82-15.99-7.5-25.26-8.45-19.021-1.95-38.895-.88-58.005-.89l-102.967.05c-78.257.07-157.472-2.63-235.62-.28-12.989.39-29.895 2.34-39.252 12.39-6.334 6.8-9.798 16.22-10.955 25.31-2.208 17.37-1.038 35.7-1.054 53.22l-.038 97.55.079 136.79c.032 27.17-1.015 54.86.96 81.94.941 12.9 4.254 21.8 14 30.76 4.556 4.19 11.075 8.69 17.269 9.61 18.643 2.79 39.573 1.15 58.484 1.16h264.06c29.194-.01 59.184 1.46 88.249-.92 4.28-.38 8.55-.83 12.8-1.36 9.58-1.23 15.12-5.34 20.81-13.01 12.63-17.02 8.42-41.94 9.08-61.93 6.01 16.48 3.42 36.02 2.74 53.32"/><path fill="#595858" d="m870.108 3546.62 37.837.09.003 39.01c18.197-1.21 32.594-.18 46.907 12.53 12.922 11.48 19.174 28.03 19.681 45.07.474 15.92-3.506 32.04-14.56 43.95-13.279 14.32-29.819 17.13-48.452 17.21-13.944.06-27.952.56-41.851.46.165-13.83 2.725-33.78-1.254-46.93-4.973-1.63-7.78-.5-12.661.8l-2.19 3.43c2.354 8.99 8.71 15.85 13.129 23.89-12.898 12.45-28.874 20.17-47.125 19.79-15.502-.33-29.973-6.63-40.393-18.21-12.651-14.05-14.485-26.97-17.388-44.66-5.308 15.48-14.549 55.41-28.54 62.81-6.362-.67-9.186-2.24-13.174-7.35-9.21-11.79-14.55-28.22-20.494-41.94l-21.051 48.2c-7.121.27-13.932 1.09-20.734-1.46-3.525-26.25-29.619-88.48-39.857-117.16l40.679-.01 7.285 23.15c1.831 5.23 2.342 11.12 7.261 13.88 11.371-9.67 7.816-32.16 23.257-38.65 6.439.84 9.477 3.51 13.367 8.39 7.895 9.91 12.328 24.83 16.997 36.6l15.724-43.45c11.444-.22 25.116-2.1 35.989 1.71 2.453 6.64-4.08 9.56-1.632 14.78 21.887-8.85 35.274-26.57 61.823-15.76 13.843 5.64 23.19 15.56 31.253 27.75z"/><path fill="#FCFCFD" d="M880.112 3556.59c2.087-.12 4.173-.27 6.262-.31 6.096-.13 7.655.73 11.869 4.74 3.319 10.48-3.208 20.13-2.246 30.84.339 3.77 2.021 6.56 4.853 8.87 5.788-3.02 11.46-5.97 17.97-7.05 8.95-1.49 17.535.96 24.725 6.41 11.387 8.64 18.202 22.79 20.011 36.75 2.316 17.88-2.416 32.76-13.338 46.74-34.464 24.37-34.71.85-54.959 5.32-4.107.9-5.666 5.74-11.578 6.5-8.035-9.1-3.713-120.81-3.569-138.81"/><path fill="#595858" d="M909.19 3609.84c8.999-.13 16.836.62 24.023 6.6 7.589 6.31 12.02 16.83 12.245 26.61.296 12.86-3.304 23.32-12.139 32.56-5.478 1.91-12.971 4.77-18.845 3.95-5.647-.79-8.911-2.62-12.474-7.08-9.774-12.25-6.859-36.42-3.59-50.6 1.638-7.1 5.065-8.23 10.78-12.04"/><path fill="#3981F1" d="M908.742 3619.45c4.702.19 8.957.55 13.396 2.26 5.876 2.25 9.509 6.44 11.898 12.15 4.038 9.65.173 22.61-3.265 31.85-3.383 1.55-9.375 4.2-13.192 4.04-2.704-.12-5.002-.71-6.703-2.88-7.628-9.7-2.818-35.22-2.134-47.42"/><path fill="#FCFCFD" d="M812.589 3594.46c9.563-.3 19.608.17 28.101 5.06 11.221 6.45 22.278 19.62 24.702 32.53 1.062 5.65-.501 7.88-3.695 12.1-17.201 9.44-47.914.63-67.554 3.17-2.672 4.06-3.147 4.81-1.83 9.89 2.402 9.28 12.164 16.97 20.532 20.5 10.089 4.25 20.17.58 29.699-3.23l1.992-1.85 3.487.94c3.128 4.65 3.59 4.82 3.244 10.34-3.253 4.31-5.76 6.72-10.954 8.56-12.752 4.5-33.32 2.66-45.291-3.66-10.754-5.69-17.362-15.64-20.363-27.24a60.05 60.05 0 0 1 6.357-44.98c7.531-12.74 17.51-18.67 31.573-22.13"/><path fill="#595858" d="M812.028 3609.91c.789-.01 1.577-.04 2.366-.05 10.998-.14 18.201 1.7 25.826 10.21 3.259 3.63 3.778 5.85 3.41 10.55-4.707 3.78-7.215 2.92-13.13 3.07-8.057.05-16.904 1-24.84.08-5.391-.63-8.596-1.85-11.859-6.09 2.787-8.94 10.636-12.98 18.227-17.77"/><path fill="#FCFCFD" d="M665.472 3692.31c-9.312-26.74-30.151-69.55-30.433-96.33l5.032-3.89c14.438 10.31 17.199 19.76 22.538 36.09 2.756 9.49 5.485 18.96 8.772 28.29 8.997-21.81 17.143-44.74 28.409-65.46 9.299 21.84 18.099 44.11 28.107 65.62 5.851-17.47 11.716-46.66 24.769-59.73 4.715-1.35 7.704-.77 12.439-.02 1.024 15.61-27.392 84.87-34.744 103.91-11.004-22.77-20.855-46.03-30.851-69.25-7.57 18.21-16.032 48.06-28.871 62.22z"/><path fill="#3981F1" d="M802.367 3657.87c11.37-.59 30.049-3.6 40.366.95l-1.249 4.79c-5.398 2.86-14.325 6.6-20.536 6.04-8.92-.81-13.013-5.53-18.581-11.78"/><path fill="#FEBF57" d="M766.546 1975.07c22.52-2.84 364.704-3.16 381.824.72 40.81 10.63 72.01 82.59 124.4 99.09 32.69 10.29 175.12 4.54 217.57 4.45l350.76.01c26.34 0 61.37-5.87 76.45 20.79 4.49 7.94 5.7 16.06 6.29 25.04 3.85 58.37.42 118.81.41 177.43l-.27 321.61 1.17 80.8c-11.3-40.32-13.91-85.46-19.52-126.96l-31.81-240.32c-4.57-35.14-6.45-74.39-16.3-108.33-4-13.76-10.85-25.55-20.49-36.11-15.71-17.22-37.09-31.23-60.18-35.54-29.34-5.49-62.48-2.36-92.44-2.32l-168.07.2-506.92-.1c-92.077.02-185.579 3.45-277.453-1.16-.642-36.69-8.445-139.46 9.166-164.86 6.442-9.29 14.548-12.85 25.413-14.44"/><path fill="#FBE252" d="M731.967 2154.37c-.642-36.69-8.445-139.46 9.166-164.86 6.442-9.29 14.548-12.85 25.413-14.44l2.76 1.96-2.165.79c-11.685 4.33-18.417 8.41-26.597 17.9-8.268 39.71-8.33 113.18-4.147 154.04l738.523-.36 197.42.07c33.21.04 70.33-3.09 102.97 2.34 22.03 3.67 44.84 16.46 60.68 32.1a106.14 106.14 0 0 1 26.56 42.9c11.62 36.43 16.11 97.35 21 136.96l22.56 174.7c1.66 13.3 3.83 51.96 10.09 60.93 2.4-2.73 1.75-16.37 1.87-20.14-2.06-44.06-.29-88.82-.24-132.96q.225-108.405-.93-216.81c-.16-36.34 4.16-75.88.42-111.86-1.67-16.08-7.03-21.09-19.19-30.94-41.45-6.53-96.79-2.02-139.97-1.84-113.78.76-227.56.72-341.35-.11-37.31-.27-92.51 3.9-127.27-.31-69.68-8.42-97.89-100.11-154.55-105.04-46.46-4.05-315.201 6.32-333.386-2.2 1.138.05 2.276.21 3.413.15 83.215-4.6 168.554-1.17 252.003-.87 29.4.11 59.45 1.44 88.77-.49l2.58-.19c40.81 10.63 72.01 82.59 124.4 99.09 32.69 10.29 175.12 4.54 217.57 4.45l350.76.01c26.34 0 61.37-5.87 76.45 20.79 4.49 7.94 5.7 16.06 6.29 25.04 3.85 58.37.42 118.81.41 177.43l-.27 321.61 1.17 80.8c-11.3-40.32-13.91-85.46-19.52-126.96l-31.81-240.32c-4.57-35.14-6.45-74.39-16.3-108.33-4-13.76-10.85-25.55-20.49-36.11-15.71-17.22-37.09-31.23-60.18-35.54-29.34-5.49-62.48-2.36-92.44-2.32l-168.07.2-506.92-.1c-92.077.02-185.579 3.45-277.453-1.16"/><path fill="#362a4a" d="M252.552 223.243c8.609-24.35 33.102-43.876 55.787-54.735 17.514-8.384 34.605-12.167 53.936-13.185 48.447-2.549 98.404.167 146.984.216l306.283.152 354.118-.126c58.62-.118 118.08-2.635 176.61-.531 13.98.503 27.57 2.483 40.81 7.153 30.71 10.839 58.09 33.197 72.47 62.719 9.04 18.574 10.3 40.053 10.86 60.427 2.62 95.975-.2 192.615-.35 288.651 1.02 183.398.63 366.801-1.17 550.196-.42 106.72-.08 213.44 1.04 320.15.85 76.64 3.36 153.8 1.12 230.39-.49 16.74-1.77 33.27-7.52 49.13a122.6 122.6 0 0 1-65.18 70.16c-12.78 5.77-25.72 8.82-39.67 9.63-54.82 3.19-111.32.43-166.31.43l-311.338.45-355.631.01c-57.719-.07-116.664 2.59-174.209-.43-14.024-.74-27.279-3.28-40.429-8.3-5.9-2.25-14.603-5.9-18.766-10.51-25.97-16.24-43.195-42.05-50.964-71.34-8.85-33.36-5.191-71.12-5.044-105.42l.075-111.93-.353-499.682.26-485.692.021-151.228c.002-27.834-1.156-56.268.658-84.025 1.172-17.94 6.816-37.203 15.902-52.73"/><path fill="#1A122F" d="M252.552 223.243c6.116 16.788-4.675 48.216-5.376 66.989-1.494 39.985.583 81.034.622 121.131l.127 948.197.059 230.33c-.147 37.56-5.397 78.69 1.294 115.69 5.25 29.02 13.266 42.49 33.613 63.09 4.185 4.24 8.646 7.95 11.082 13.52l-1.976 3.1c-25.97-16.24-43.195-42.05-50.964-71.34-8.85-33.36-5.191-71.12-5.044-105.42l.075-111.93-.353-499.682.26-485.692.021-151.228c.002-27.834-1.156-56.268.658-84.025 1.172-17.94 6.816-37.203 15.902-52.73"/><path fill="#AACDF9" d="M833.702 212.155c116.144-2.118 232.628-.339 348.808-.308l103.95.079c23.11.016 48.04-1.572 70.83 2.475 12.27 2.179 25.62 9.986 34.49 18.6 16.08 15.607 19.98 33.574 22.06 54.886 5.05 51.989 2 106.882 2.03 159.132l.08 286.903-.1 552.708c.02 108.09 1.13 216.27 0 324.34-.37 35.21 3.06 92.14-22.97 118.63-9.84 10.01-23.05 17.82-37.17 19.38-31.03 3.42-65.37.52-96.69.58l-205.27.39c-201.787-.14-404.013 2.38-605.729-.72l-7.9-.15c41.74-2 83.183-.71 124.92-.81 69.842-.65 139.688-.69 209.531-.11 38.316.13 103.053 3.44 138.422-2.06-91.934-3.77-185.336-.47-277.422-.45-90.371.01-181.863-3.32-272.078.45l-.272 1.7-3.902 2.34c-15.738-1.01-34.142-9.09-45.621-20.09-15.484-14.83-22.561-36.65-24.634-57.45-4.828-48.45-1.031-100.42-.982-149.2v-287.79l-.217-919.842c.104-31.366 2.128-59.685 26.59-82.809 10.828-10.235 26.804-17.238 41.504-19.275 22.426-3.107 46.75-1.548 69.375-1.592l120.898.098c95.676.389 191.891-2.33 287.469-.035"/><path fill="#0E0515" d="M833.702 212.155c116.144-2.118 232.628-.339 348.808-.308l103.95.079c23.11.016 48.04-1.572 70.83 2.475 12.27 2.179 25.62 9.986 34.49 18.6 16.08 15.607 19.98 33.574 22.06 54.886 5.05 51.989 2 106.882 2.03 159.132l.08 286.903-.1 552.708c.02 108.09 1.13 216.27 0 324.34-.37 35.21 3.06 92.14-22.97 118.63-9.84 10.01-23.05 17.82-37.17 19.38-31.03 3.42-65.37.52-96.69.58l-205.27.39c-201.787-.14-404.013 2.38-605.729-.72l-7.9-.15c41.74-2 83.183-.71 124.92-.81 69.842-.65 139.688-.69 209.531-.11 38.316.13 103.053 3.44 138.422-2.06 35.708-3.25 73.975-.42 109.986-.44l225.05.03c35.23.07 76.57 4.65 111.04-2.07 9.91-1.93 19.11-7.7 26.55-14.35 16.39-14.66 21.97-34.97 23.48-56.21 2.02-28.32.95-57.16.93-85.56l-.08-144.69.03-453.658-.03-466.75.13-150.656c.03-28.601 1.15-57.729-.74-86.247-1.09-16.468-5.39-32.795-16.84-45.238-8.03-8.733-20.56-17.738-32.45-19.912-34.71-6.346-88.04-1.89-124.4-1.874-107.35.044-215.82 3.46-323.001-.496-133.246 3.647-267.325.302-400.676.343-44.114.014-123.725-4.545-163.681 2.544-16.637 4.268-32.215 12.929-41.309 28.108-.608 1.014-1.092 2.097-1.637 3.145-7.41 14.015-8.744 25.201-9.336 40.771-2.896 76.08-.316 153.248-.293 229.421l.139 446.542-.024 457.917c-.037 78.96-2.624 158.86.166 237.73.438 12.39 1.47 25.9 5.469 37.69 5.821 17.16 18.755 29.39 34.996 36.77 8.577 3.89 17.813 5.52 27.031 7.14l-.272 1.7-3.902 2.34c-15.738-1.01-34.142-9.09-45.621-20.09-15.484-14.83-22.561-36.65-24.634-57.45-4.828-48.45-1.031-100.42-.982-149.2v-287.79l-.217-919.842c.104-31.366 2.128-59.685 26.59-82.809 10.828-10.235 26.804-17.238 41.504-19.275 22.426-3.107 46.75-1.548 69.375-1.592l120.898.098c95.676.389 191.891-2.33 287.469-.035"/><path fill="#D5F5FE" d="M912.649 217.979c107.181 3.956 215.651.54 323.001.496 36.36-.016 89.69-4.472 124.4 1.874 11.89 2.174 24.42 11.179 32.45 19.912 11.45 12.443 15.75 28.77 16.84 45.238 1.89 28.518.77 57.646.74 86.247l-.13 150.656.03 466.75-.03 453.658.08 144.69c.02 28.4 1.09 57.24-.93 85.56-1.51 21.24-7.09 41.55-23.48 56.21-7.44 6.65-16.64 12.42-26.55 14.35-34.47 6.72-75.81 2.14-111.04 2.07l-225.05-.03c-36.011.02-74.278-2.81-109.986.44-91.934-3.77-185.336-.47-277.422-.45-90.371.01-181.863-3.32-272.078.45-9.218-1.62-18.454-3.25-27.031-7.14-16.241-7.38-29.175-19.61-34.996-36.77-3.999-11.79-5.031-25.3-5.469-37.69-2.79-78.87-.203-158.77-.166-237.73l.024-457.917-.139-446.542c-.023-76.173-2.603-153.341.293-229.421.592-15.57 1.926-26.756 9.336-40.771l-1.691 1102.641.003 225.2c-.075 32.43-2.889 65.43-1.117 97.75.477 8.71 1.719 17.17 4.944 25.34a57.68 57.68 0 0 0 31.703 32.25c11.631 4.85 24.852 5.36 37.312 5.68 45.089 1.15 90.598-.41 135.734-.31l362.742-.3 298.014-.14c53.25.08 106.92 1.71 160.12.24 11.49-.31 22.88-.37 33.6-4.96 13.36-5.72 26.61-17.38 31.36-31.48 14.49-42.96 8.41-202.65 8.42-257.31l-.52-397.85-.17-460.732c.07-90.432 1.6-181.087-.36-271.493-.38-17.522 1.75-42.087-6.74-57.826-8.17-15.141-18.56-27.784-35.82-32.597-28-7.809-151.36-2.78-189.37-2.68l-618.052-.951c-25.924-.022-193.992 3.579-205.068-.625-.738-.281-1.399-.734-2.098-1.1 39.956-7.089 119.567-2.53 163.681-2.544 133.351-.041 267.43 3.304 400.676-.343"/><path fill="#362a4a" d="M582.783 346.744c41.236-1.584 82.872-.484 124.148-.492l219.226-.11 127.083-.046c26.49-.001 54.41-1.637 80.68 2.065 15.45 2.179 29.02 9.253 41.28 18.723 21.56 16.635 34.44 37.505 37.78 64.522 3.64 29.497 1.32 61.309 1.23 91.077l-.3 167.191.22 164.539c.04 27.09 2.75 57.792-1.33 84.486-2.3 15.015-11.96 32.205-21.39 43.937-16.12 20.054-37.32 32.584-62.91 35.654-113.02 3.12-226.614.71-339.706.74l-124.063.16c-25.646.02-51.961 1.18-77.48-1.39-14.357-1.44-26.985-5.47-39.381-12.97-23.704-14.329-42.159-37.913-48.398-65.094-6.677-29.088-3.2-65.811-3.194-95.681l-.012-154.296-.08-160.973c-.003-30.413-1.539-61.68 1.365-91.945 1.666-17.367 4.576-31.805 14.612-46.607 16.613-24.502 42.041-38.331 70.62-43.49"/><path fill="#0E0515" d="M593.134 400.367c1.944-.166 3.891-.314 5.842-.381 36.931-1.27 74.258-.315 111.231-.4l214.183-.305 122.56.304c24.63.113 50.34-1.139 74.8 2.053 9.18 1.198 16.69 5.293 23.26 11.768 12.54 12.363 12.82 26.171 13.02 42.808.87 111.906.89 223.817.06 335.723-.23 37.016 3.88 98.4-.76 131.161-1.73 12.25-4.68 21.367-13.75 30.127-13.37 12.923-29.22 13.067-46.58 12.836-121.67-1.821-243.551-.629-365.256-1.023-41.027-.133-88.496 2.485-128.146.604-8.291-.393-16.302-1.701-23.846-5.32-10.606-5.087-22.275-16.295-25.992-27.647-5.574-17.028-1.392-94.737-1.361-118.818l.604-300.621c.185-22.909-1.422-45.881-.592-68.77.27-7.426.546-13.842 4.025-20.535 7.582-14.59 21.991-19.313 36.698-23.564"/><path fill="#3981F1" d="M588.203 406.54c94.228-3.928 189.903-.533 284.281-.478 75.685.043 157.036-3.637 232.016-.083 8.39.398 16.85 1.353 24.85 4.038 9.95 3.336 17.13 10.209 21.18 19.925 5.89 14.118 5.45 432.232 2.31 485.598-.42 7.164-1.57 13.911-4.6 20.472-5.83 12.615-15.38 18.453-27.98 23.192-26.07 2.206-53.02.846-79.21.835l-139.862-.092-188.576.096c-34.627.084-69.704 1.277-104.289-.036-9.291-.352-18.225-.781-26.726-4.9-9.447-4.576-18.213-12.666-21.4-22.897-7.935-25.479-3.193-218.509-3.199-258.355-.012-75.188-3.718-152.026.218-227.025.41-7.811 1.567-15.583 5.406-22.508 5.586-10.079 15.02-14.505 25.581-17.782"/><path fill="#186EF5" d="M622.93 645.744c-1.062-15.716-6.262-64.289 3.315-75.007 9.774-10.94 61.102-5.788 76.255-5.606 30.392.074 143.37-5.923 163.171 6.911 1.503 2.687 2.413 5.066 2.797 8.144 1.344 10.752 3.1 52.287-3.563 59.444-12.02 12.912-56.31 7.646-73.054 7.778.419 66.603 1.188 133.377.312 199.971-.209 15.82 1.556 27.412-10.205 38.905-13.83 5.515-61.247 2.631-75.503-2.746-8.182-10.345-4.358-207.756-4.376-236.521-26.39-.74-52.758.037-79.149-1.273"/><path fill="#FCFCFD" d="m628.706 572.759 232.71.643c.081 22.167-.235 44.333-.946 66.488l-77.094-.555c.286 27.005 4.6 229.457-1.822 240.579-22.698-.306-45.314-.625-68.005.298-2.125-1.204-1.751-.497-2.414-3.164-4.385-17.644-1.014-48.05-1.014-67.182l.057-170.241-81.473.275c-.032-22.363-.359-44.783.001-67.141"/><path fill="#FCFCFD" d="M981.464 568.778c41.946.943 73.326 12.61 106.926 37.736a4807 4807 0 0 0-36.71 47.6c-15.47-12.362-28.4-20.299-48.63-22.849-14.97-1.887-36.801.51-48.339 11.402-3.35 3.162-5.52 6.414-5.055 11.157 3.72 37.925 92.674 43.084 123.824 72.758 17.63 16.797 24.36 38.901 24.47 62.754.11 24.416-6.27 47.014-24.25 64.377-28.68 27.695-66.22 30.558-103.802 29.863-41.228-6.9-68.048-20.738-101.746-45.356 12.315-16.088 22.887-33.083 33.558-50.269 21.678 18.262 56.384 38.178 85.435 37.172 10.907-.378 23.935-5.433 31.245-13.762a27.9 27.9 0 0 0 6.68-21.064c-2.77-26.103-51.028-35.504-70.982-43.469-14.838-5.922-29.835-13.567-42.285-23.682-16.889-13.723-27.358-31.755-29.003-53.597-1.994-26.467 5.343-46.584 22.316-66.823 20.259-24.157 46.473-31.096 76.348-33.948"/><path fill="#362a4a" d="M497.931 1338.17c57.115-2.39 115.104-.49 172.291-.49l327.089-.03 146.679-.18c21.13-.02 48.93-3.6 69.04 1.45 6.25 1.56 13.81 7.72 17.02 13.28 3.96 6.83 4.28 14.81 2.23 22.32-2.93 10.75-8.97 15.72-18.15 21.36-30.87 2.34-62.33 1.35-93.28 1.37l-143.43.01-439.819.14c-15.699-.02-38.139 2.79-49.716-9.8-5.255-5.72-7.497-12.91-6.901-20.61 1.028-13.3 7.082-20.62 16.947-28.82"/><path fill="#362a4a" d="M500.95 1156.51c54.723-2.31 110.364-.41 165.163-.39l315.581.13 152.406-.2c24.44-.08 52.9-3.2 76.81 1.38 7.89 1.51 13.52 5.05 17.75 12.01a32.16 32.16 0 0 1 3.6 25.44c-3.04 10.67-8.79 14.26-17.89 19.59-53.53 1.48-107.48.09-161.05.09l-314.065-.06q-72.238-.555-144.477-.12c-26.877.31-57.518 3.88-84.043.45-10.003-1.29-20.496-4.91-26.408-13.6-4.403-6.47-5.386-14.86-3.559-22.38 2.676-11.03 10.801-17.07 20.182-22.34"/><path fill="#D5F5FE" d="M499.309 1510.34c25.002-1.09 50.429.27 75.496.35l172.207 1.15c70.679.4 141.664-3.42 212.239-1.66 6.02 3.44 11.624 7.1 16.308 12.3 6.356 7.05 10.126 16.31 9.383 25.86-.997 12.82-9.409 21.93-18.427 30.23-5.95 2.41-11.264 2.76-17.658 3.06-32.427 1.51-65.359.36-97.854.38l-183.945.14-101.955.08c-20.881.01-43.865 1.8-64.383-1.9-7.707-1.39-14.145-7.63-18.282-13.95-5.577-8.51-8.454-19.29-6.01-29.34 3.055-12.56 12.185-20.41 22.881-26.7"/><path fill="#362a4a" d="M495.912 1516.14q5.188-.27 10.382-.27l311.553-.12 86.917-.02c17.415.01 36.54-1.34 53.756 1.46 5.486.89 11.082 4.21 14.836 8.29 5.175 5.62 7.037 12.66 6.565 20.15-.85 13.5-6.764 21.55-16.604 30.17-.785.03-1.57.08-2.355.11-91.815 3.21-184.755.21-276.708.3l-110.803.06c-22.145 0-45.29 1.27-67.323-1.16-7.105-.78-12.638-3.06-17.769-8.11-5.655-5.56-7.903-12.82-7.708-20.63.336-13.45 5.971-21.17 15.261-30.23"/><path fill="#362a4a" d="M2701.32 154.702c.64-.038 1.28-.099 1.91-.115 80.54-2.02 161.65-.025 242.23.02l471.2.096 255.6.16c37.12.068 82.92-3.426 119.07 1.418 23.73 3.18 46.88 17.757 63.9 34.198 28.1 27.154 37.29 57.159 38.01 95.272 3.24 171.679.32 343.974-.03 515.711l-.37 155.209c-.08 29.853 2.22 62.539-2.59 91.919-4.36 26.56-18 52.79-36.78 71.96-17.36 17.72-41.04 32.04-65.26 37.84-32.28 7.72-83 3.53-117.49 3.63-75.81-.03-151.62.33-227.43 1.11 13.15 38.48 24.43 79.89 30.95 120.04 17.3 1.16 35.15.41 52.52.54 22.89.17 60.33-5.42 80.38 5.83a27.26 27.26 0 0 1 13.37 17.81c2.76 11.86.83 21.15-5.66 31.17-9.09 6.41-19.89 8.32-30.82 9.29-37.29 3.31-77.35.6-114.92.74l-232.36.66-235.05-.11c-37.17-.04-76.08 2.62-112.94-.33-8.04-.64-15.19-3.42-21.25-8.77-7.71-6.81-10.57-14.52-10.69-24.74-.09-7.49 3.33-14.66 8.56-19.92 19.94-20.08 111.71-11.9 141.29-11.55 7.62-24.23 29.49-95.97 29.22-117.98-18.69-6.47-48.78-2.82-68.79-2.85l-156.74-.09c-37.5-.05-80.1 3.57-116.65-5.06-20.77-4.91-41.8-15.97-57.99-29.9-29.3-25.2-43.8-63.86-46.74-101.64-3.86-49.614-1.44-100.883-1.51-150.717l-.27-273.103-.11-227.774c0-39.292-2.64-80.638 1.34-119.669 1.81-17.819 13.64-42.689 25.31-56.159a126.66 126.66 0 0 1 87.58-44.146"/><path fill="#1A122F" d="m2751.12 212.908 706.87.177 204.56-.125c37.04-.085 76.3-2.476 113.09 1.296 12.62 1.294 24.08 6.18 34.18 13.865 15.51 11.811 22.32 29.602 24.92 48.442 4.64 33.57 2.95 69.127 3.04 103.041l-.03 170.823-.07 209.605c-.07 42.413 1.53 87.81-2.43 129.953-.53 5.585-2.78 9.16-6.05 13.523-5.83 3.517-13.88 2.038-20.5 1.681-93.16-1.99-186.52.158-279.7.247l-560.94.289-214.61-.327c-35.14-.132-70.55 1.124-105.63-.663-5.06-5.201-6.04-6.966-6.34-14.528-1.75-44.002-.07-88.768 0-132.834l.17-250.27-.18-141.554c-.17-29.97-2.25-61.63 1.52-91.344 1.97-15.503 8.46-30.024 19.29-41.422 23.16-24.366 58.31-19.528 88.84-19.875"/><path fill="#FEBF57" d="M2709.28 218.814c2.96-.16 5.89-.202 8.86-.227l706.35-.045 230.54-.249c40.65-.031 83.75-2.977 124.01 1.781 14.31 1.691 25.53 7.602 35.65 17.911 11.01 11.218 13.07 27.825 14.57 42.909 2.43 24.369 1.06 49.829 1.06 74.341l-.1 130.282-.16 411.965-53.56-.206-1128.53.343-.05-424.165V347.255c.01-25.806-1.56-52.776 1.62-78.385 1.46-11.747 5.46-21.217 13.2-30.237 12.48-14.551 28.27-18.933 46.54-19.819"/><path fill="#595858" d="M2966.52 340.633c2.73.025 5.46.121 8.18.289 20.29 1.339 40.75 11.876 49.24 31.142 9.96 22.636 5.81 55.886 5.67 80.245-.17 30.151-7.54 193.711 12.47 212.287 3.59 3.336 7.1 5.06 11.97 4.618 67.25-6.099 5.54-253.484 48.66-304.076 10.27-12.051 25.2-17.524 40.7-18.461 15.87-.959 31.85 2.951 43.69 14 8.32 7.771 13.45 18.086 15.86 29.13 3.71 16.953 1.05 38.28 1.06 55.811.11 23.554.61 47.106 1.47 70.645 2.31 65.01 2.4 140.38-30.26 198.555-18.19 32.391-46.78 55.972-82.85 65.534-35.14 9.315-76.41 8.356-108.12-10.882-35.09-21.285-53.67-60.806-62.23-99.561-14.88-67.361-10.15-139.049-9.41-207.464.25-22.898-1.65-47.538 1.55-70.196 1.36-9.626 4.25-19.085 9.73-27.203 10.26-15.221 25.28-20.952 42.62-24.413"/><path fill="#FCFCFD" d="M2964.14 374.048c7.14-.315 16.42-.437 22.61 3.781 7.76 5.282 9.63 13.38 10.67 22.192 2.18 18.461-.44 38.674-.83 57.283-1.05 49.37-5.75 157.34 6.83 202.199 4.25 15.186 11.08 30.323 25.64 38.049 12.45 6.602 30.59 6.184 43.67 1.782 86.35-29.063 24.11-256.002 53-307.29 3.75-6.658 9.28-11.148 16.83-12.82 6.18-1.369 15.36.001 20.34 4.083 14.12 11.579 8.71 48.222 8.4 64.508.98 65.271 7.82 132.434-5.24 196.949-7.22 35.657-21.85 71.997-53.97 92.2-24.1 15.154-59.11 20.538-86.87 14.133-22.96-5.296-40.79-19.496-53.03-39.405-37.32-60.691-28.99-193.538-26.56-263.442.61-17.733-2.95-38.107 1.63-55.16 2.7-10.049 8.23-14.134 16.88-19.042"/><path fill="#595858" d="M3312.25 350.721c34.5-2.637 70.21.392 104.78.959 26.65.437 56.45-2.545 82.58 2.605 8.78 1.731 16.06 5.014 22.87 10.895 11.72 10.118 19.47 25.151 20.03 40.689.59 16.12-2.74 31.856-14.16 43.814-18.86 19.752-39.78 19.084-65.07 19.147-1.25 66.081-.72 132.267-1.46 198.37 18.49.051 36-.838 52.73 8.617a56.42 56.42 0 0 1 27.49 35.984 58.75 58.75 0 0 1-7.65 44.819c-9.93 15.55-23.99 23.044-41.47 27.228-40.05.612-80.26-.298-120.32-.932-20.32-.321-44.18 1.64-64.03-2.676-10.04-2.182-19.33-6.873-26.74-14.022-11.19-10.781-17.1-26.846-17.01-42.239.09-15.938 7.24-34.347 19.12-45.221 16.78-15.348 40.84-13.175 61.85-12.963l.69-198.62c-18.28-.177-36.42.691-52.98-8.488a57.25 57.25 0 0 1-27.64-35.497 58.39 58.39 0 0 1 6.77-45.015c9.47-15.51 22.43-23.12 39.62-27.454"/><path fill="#FCFCFD" d="M3311.58 384.012c27.41-1.268 177.24-4.964 190.87 7.578 5.49 5.053 7.92 12.658 7.7 19.995-.21 7.047-2.93 13.972-8.41 18.583-12.65 10.634-54.63 5.794-71.48 5.518l-.37 263.809c17.2-.1 35.87-1.594 52.85.564 8.36 1.062 19.2 3.749 24.02 11.496 3.98 6.414 4.36 13.926 2.73 21.155-1.97 8.679-7.33 12.89-14.43 17.597-26.43 1.263-175.99 3.547-188.05-6.628-5.77-4.86-8.96-11.344-9.43-18.844-.47-7.389 1.75-13.981 7.13-19.194 13.47-13.05 54.55-7.455 73.38-7.304l.02-164.281c.08-32.866-1.27-66.444 1.44-99.18-20.29-1.195-62.44 6.215-76.71-9.861-4.62-5.195-5.49-11.723-5.03-18.413.75-10.848 5.9-15.725 13.77-22.59"/><path fill="#BEBACC" d="M2650.76 951.41c73.6-5.199 151.26-1.382 225.25-1.394l425.75.048 365.2-.115c32.36-.017 142.74-4.136 165.01 2.729 11.92 14.921 7.08 51.862 5.08 70.062-2.81 25.51-10.9 46.14-31.44 62.74-10.49 8.48-23.74 14.97-36.69 18.73-25.02 6.22-55.14 3.33-80.89 3.3l-110.02-.04-439.97.45-282.82.05c-40.93-.06-96.73 3.69-136.18-1.75-2.72.08-5.36.17-8.06-.1-18.24-1.88-37.2-17.6-48.41-31.53-22.36-27.78-22.63-77.46-17.97-111.924.8-5.931 1.31-7.754 6.16-11.256"/><path fill="#04020A" d="M2650.76 951.41c73.6-5.199 151.26-1.382 225.25-1.394l425.75.048 365.2-.115c32.36-.017 142.74-4.136 165.01 2.729 11.92 14.921 7.08 51.862 5.08 70.062-2.81 25.51-10.9 46.14-31.44 62.74-10.49 8.48-23.74 14.97-36.69 18.73-9.67-.28-19.1-.49-28.65-2.26l-1.77-3.44c2.33.02 4.66.02 6.99-.01 22.88-.2 46.29-7.69 62.32-24.72 28.09-29.82 21.26-79.448 20.58-117.09l-777.96.021-253.28-.005c-47.98-.005-96.21.942-144.16-.535z"/><path fill="#0E0515" d="m2954.56 1098.68 456.03-.22c109.25-.07 218.7-1.6 327.91.05l1.77 3.44c9.55 1.77 18.98 1.98 28.65 2.26-25.02 6.22-55.14 3.33-80.89 3.3l-110.02-.04-439.97.45-282.82.05c-40.93-.06-96.73 3.69-136.18-1.75 28.15-3.89 58.75-1.89 87.19-1.97l154.29-.46c23.92-.09 49.72 1.68 73.34-1.78.64-.09 1.27-.2 1.9-.3l-2.19 2.48 1.55-3.73c-25.57 1.36-51.6.85-77.19.28z"/><path fill="#04020A" d="M2719.04 1106.22c-2.72.08-5.36.17-8.06-.1-18.24-1.88-37.2-17.6-48.41-31.53-22.36-27.78-22.63-77.46-17.97-111.924.8-5.931 1.31-7.754 6.16-11.256l2.23 4.761c-5.02 33.262-6.89 85.859 14.39 113.359 11.83 15.29 29.39 26.02 48.68 28.41 26.4 3.27 55.89.24 82.58.15l155.92.59 3.37 2.06c25.59.57 51.62 1.08 77.19-.28l-1.55 3.73 2.19-2.48c-.63.1-1.26.21-1.9.3-23.62 3.46-49.42 1.69-73.34 1.78l-154.29.46c-28.44.08-59.04-1.92-87.19 1.97"/><path fill="#362a4a" d="M3145.38 1010.92c62.16-1.37 124.67-.28 186.85.39 6.46 4.9 12.76 9.71 15.09 17.81 1.79 6.24 1.67 12.78-1.95 18.42-4.93 7.66-11.48 9.43-19.95 11.06-30.31-.13-170.86 3.81-189.63-3.86-5.82-2.38-11.03-6.19-13.11-12.41-2.06-6.18.31-15.4 3.91-20.71 4.61-6.79 11.13-9.22 18.79-10.7"/><path fill="#BEBACC" d="m3102.11 1159.71 276.69.07c9.9 42.83 21.7 85.32 32.43 127.96-13.56-.47-27.16-.5-40.73-.74-99.94-.06-200.28-1.97-300.17.76 9.01-42.88 20.84-85.61 31.78-128.05"/><path fill="#362a4a" d="M2697.81 1432.84c255.97 4.94 512.75 1.4 768.78.73l217.66-.5c35.28-.06 74-3.3 108.85 1.36 21 2.81 42.43 13.44 58.16 27.39 23.39 20.74 39.4 49.9 40.82 81.37 2.56 56.49 1.02 113.81 1.12 170.4l-.03 313.97-.55 173.56c-.15 29.98 2.22 63.06-2.49 92.64a141.75 141.75 0 0 1-35.6 73.34 134.76 134.76 0 0 1-68.39 39.36c-34.73 7.79-77.37 3.49-113 3.52-76.6.07-153.61-1.44-230.16 1.07l31.42 117.28 37.1.18c30.37-.12 61.11-2.41 90.72 5.34l11.62 10.84c2.96 7.17 4.74 15 6.85 22.46-2.45 6.29-4.77 12.77-9.27 17.93-7.13 8.18-15.31 10.05-25.71 10.6-42.59 2.23-85.96.54-128.63.47l-237.93-.28-216.6.11c-36.82-.03-75.14 2.09-111.78-.66-7.8-.58-16.71-4.08-22.31-9.63-5.8-5.74-8.18-13.47-8.3-21.47-.12-8.36 2.38-16.1 8.34-22.11 19.24-19.39 105.06-12.19 134.81-12.58a4479 4479 0 0 1 33-120.37l-211.36.33c-38.51.07-79.32 2.64-117.54-1.58-14.28-1.58-29.19-5.21-42.05-11.7-32.73-16.51-60.16-49.41-71.34-84.09-2.67-8.28-5.14-17.13-5.8-25.83-2.49-33.05-.39-67.61-.42-100.85l-.13-205.99.04-279.4c.08-48.48-1.38-97.7.98-146.09.8-16.42 1.99-40.64 9.87-55.18.48-.87.99-1.71 1.48-2.57 3.36-5.97 6.75-11.76 10.92-17.22 22.06-28.83 51.79-41.06 86.85-46.15"/><path fill="#A397FC" d="M2690.78 1493.7c39.81-8.35 87.14-3.68 127.96-3.66l231.4.07 471.43.09c79.61.02 160.02-2.56 239.51.35 14.15.52 31.25 1.8 43.35 9.72 1.59 1.04 2.13 1.57 3.7 2.86-.27 3.37.31 2.21-.7 3.8 22.7 22.61 22.83 38.24 22.94 68.59l-.6 568.96.88 1.91c-.44.37-.84.8-1.33 1.09-10.72 6.42-786.3 2.66-868.35 2.66l-192.93-.04c-39.82-.03-81.03 2.03-120.55-2.98l1.49-.15-5.07-1.1c-.36-.99-.74-1.97-1.06-2.97-7.04-21.91-2.36-92.15-2.32-118.42l.02-206.39-.15-165.72c-.03-29.76-1.15-60.01.4-89.71.7-13.59 2.35-26.52 9.43-38.41 9.34-15.7 23.08-25.74 40.55-30.55"/><path fill="#04020A" d="m3829.77 2144.48.88 1.91c-.44.37-.84.8-1.33 1.09-10.72 6.42-786.3 2.66-868.35 2.66l-192.93-.04c-39.82-.03-81.03 2.03-120.55-2.98l1.49-.15-5.07-1.1c-.36-.99-.74-1.97-1.06-2.97-7.04-21.91-2.36-92.15-2.32-118.42l.02-206.39-.15-165.72c-.03-29.76-1.15-60.01.4-89.71.7-13.59 2.35-26.52 9.43-38.41 9.34-15.7 23.08-25.74 40.55-30.55l3.79 4.91c-18.4 5.43-32.26 13.94-41.21 31.49-3.31 6.51-4.39 13.06-4.79 20.28-3.5 62.48-.66 126.45-.66 189.14l-.03 404.3 809.67-.21 249.64-.07c39.73 0 83.37-3.64 122.58.94"/><path fill="#04020A" d="M2690.78 1493.7c39.81-8.35 87.14-3.68 127.96-3.66l231.4.07 471.43.09c79.61.02 160.02-2.56 239.51.35 14.15.52 31.25 1.8 43.35 9.72 1.59 1.04 2.13 1.57 3.7 2.86-.27 3.37.31 2.21-.7 3.8-9.03-4.41-16.88-7.97-27.1-8.55-51.72-2.96-104.74-.38-156.62-.38l-308.7-.03-400.32-.02c-73.2 0-146.98-1.88-220.12.66z"/><path fill="#362a4a" d="M2996.28 1751.58c45.38-.02 82.23 36.66 82.43 82.05.2 45.38-36.33 82.38-81.71 82.76-45.64.38-82.9-36.4-83.1-82.04s36.74-82.75 82.38-82.77"/><path fill="#362a4a" d="M3473.63 1753.56c44.31-9.16 87.66 19.3 96.86 63.6 9.19 44.3-19.24 87.67-63.53 96.9-44.34 9.24-87.77-19.23-96.97-63.58-9.21-44.34 19.29-87.75 63.64-96.92"/><path fill="#362a4a" d="M3227.01 1754.8c44.02-9.17 87.08 19.28 95.92 63.37 8.83 44.09-19.94 86.93-64.1 95.43-43.68 8.41-85.97-19.99-94.71-63.61s19.34-86.12 62.89-95.19"/><path fill="#BEBACC" d="m3829.83 2221.91 3.1-5.36c9.37 20.01 5.04 62.62-2.57 82.82-8.27 21.97-24.78 37.98-46.29 47.07-11.71 4.95-24.05 7.2-36.68 7.83-49.5 2.44-100.13.27-149.75.45l-325.69.31-340.79.03c-62.12.08-124.64 1.57-186.71-.35-14.9-.46-32.72-.63-46.55-6.62-22.78-9.87-40.68-27.91-48.84-51.54-8.25-23.86-7.26-66.14-2.84-91.16l2.5-1.42c4.42 17.21-5.01 52.37 2.51 65.55 2.89-20.48.61-44.81.59-65.69l814.62-.04h241.04c39.34-.04 81.6-3.61 120.44.97 3.26 4.91 2.07 11.49 1.91 17.15"/><path fill="#04020A" d="m3829.83 2221.91 3.1-5.36c9.37 20.01 5.04 62.62-2.57 82.82-8.27 21.97-24.78 37.98-46.29 47.07-11.71 4.95-24.05 7.2-36.68 7.83-49.5 2.44-100.13.27-149.75.45l-325.69.31-340.79.03c-62.12.08-124.64 1.57-186.71-.35-14.9-.46-32.72-.63-46.55-6.62-22.78-9.87-40.68-27.91-48.84-51.54-8.25-23.86-7.26-66.14-2.84-91.16l2.5-1.42c4.42 17.21-5.01 52.37 2.51 65.55 1 18.68 7.76 37.47 20.11 51.71 18.17 20.94 42.91 23.67 68.98 24.77 74.75 3.14 150.77.37 225.64.38l444.71.03 242.34-.07c35.14-.02 79.67 3.62 113.51-1.15 13.26-1.87 28.53-10.26 38.07-19.53 27.96-27.18 24.73-68.03 25.24-103.75"/><path fill="#0E0515" d="M3137.03 2258.25c58.11-.22 116.34-1.08 174.44-.4 10.25.11 24.44-.06 31.54 8.83 3.9 4.89 5.2 10.51 4.39 16.63-1.26 9.46-6.02 14.72-13.22 20.47-38.67 1.3-77.6.74-116.3.95-24.64.13-51.89 2.51-76.19-1.25-5.14-.79-10.19-2.67-14-6.35-4.4-4.27-5.47-10.25-4.87-16.09 1.14-11.13 5.69-16.09 14.21-22.79"/><path fill="#362a4a" d="m3164.22 2266.89 108.03.21c19.41.12 40.91-1.61 59.9 2.37 4.01 3.3 5.49 4.58 6.52 10.04.99 5.25-1.42 8.87-4.19 12.93-6.92 4.41-14.62 3.51-22.53 3.52-30.93.43-154.41 5.16-174.63-3.14-3.65-3.48-6.45-6.62-6.73-11.96-.27-5.24 1.1-7.38 4.02-11.26 9.26-3.34 19.84-2.53 29.61-2.71"/><path fill="#FCFCFD" d="M3097.75 2409.19c31.8 2.53 65.05.75 96.99.73l181.92-.33c9.52 41.44 19.7 83.72 32.13 124.38l-28.29-.46-315.31.16c11.39-41.35 22.24-82.84 32.56-124.48"/><path fill="#BEBACC" d="m3101.4 2417.69 271.15-.07c9.61 37.14 19 74.34 28.16 111.6l-31.21-.22c-98.18-4.33-197.88-1.32-296.21-1.29 11.23-35.39 20.97-73.58 28.11-110.02"/><path fill="#04020A" d="M2650.21 2197.01c2.06-.27 4.12-.58 6.2-.74 49.02-3.88 103.7-.55 153.27-.56l310.79-.09 462.55.08 164.92.02c22.38.01 44.93-1.17 67.28-.44 8.44.28 11.45.26 17.98 5.76-2.93.27-5.87.53-8.81.65-36.19 1.36-72.92.09-109.15.07l-211.58-.09-642.97-.06c-19.18-.01-201.68 1.92-206.41-.8-1.61-.93-2.71-2.54-4.07-3.8"/><path fill="#362a4a" d="M2468.75 2640.81c4.07-.31 8.15-.51 12.24-.58 106.03-1.45 212.3-.22 318.35-.28h132.72c54.41.03 107.62-1.08 160.98 11.71a392.73 392.73 0 0 1 184.37 101.67c70.72 69.94 113.69 170 114.1 269.67.67 160.6 12.53 291.33-111.23 415.28-67.94 68.04-158.65 107.71-254.31 116.4-60.73 5.51-131.2 1.6-192.97 1.57l-110.53.05c-36.35 35.28-71.55 71.82-107.31 107.69-25 25.08-50.89 53.39-80.59 72.89-12.9 8.46-26.19 14.62-41.85 15.37a67.33 67.33 0 0 1-51.15-19.25 64.35 64.35 0 0 1-16.46-27.51c-9.96-34.12-5.05-111.91-5.23-151.62-62.71-20.93-107.98-36.78-161.81-77.81-82.45-63.64-135.89-157.73-148.3-261.14-4.7-36.64-2.62-74.27-2.7-111.15-.25-119.68.39-210.77 78.61-311.23 73.98-95.02 166.03-137.56 283.07-151.73"/><path fill="#AACDF9" d="m2341.71 2737.48.24-2.94c32.65-18.81 76.64-32.12 113.95-36.49 24.17-2.83 50.05-1.53 74.45-1.7l143.34-.31 203.52.02c69.13.03 144.29-6.09 211.44 12.15 20.87 5.67 99.72 37.21 109.31 53.65l-1.33 1.3c75.47 62.53 125.86 137.15 134.73 237.06 3.07 34.5 2.37 69.51 2.45 104.12.23 111.95-10.42 192.66-85.34 281.07-2.39 2.82-5.33 5.6-7.3 8.69l1.35 4.33c-23.99 38.66-117.01 84.23-161.52 94.65-52.97 12.39-105.11 11.14-159.02 11.1l-127.85-.11c-24.98-.02-67.79-3.59-91.09.86-6.73 1.28-11.53 4.34-17.66 6.17-.84.26-1.75.09-2.62.13-11.37 7.35-22.64 21.41-32.39 31-28.68 28.21-128.8 135.99-156.15 146.73-3.53-.79-5.19-1.47-7.84-4.17-2.87-2.93-4.37-5.34-5.33-9.31-5.06-20.97-.8-126.79-1.27-157.64-3.94-5.67-8.58-10.75-13.12-15.94-6.35-2.06-13-3.36-19.5-4.9-100.67-23.97-179.13-68.44-234.29-159.05a335.9 335.9 0 0 1-41.92-111.81c-8.23-44.09-5.18-90.39-5.16-135.08.02-29.36-1.53-59.68 1-88.9a325 325 0 0 1 8.79-50.88c24.31-97.82 81.52-162.45 166.13-213.8"/><path fill="#04020A" d="m2341.71 2737.48.24-2.94c32.65-18.81 76.64-32.12 113.95-36.49 24.17-2.83 50.05-1.53 74.45-1.7l143.34-.31 203.52.02c69.13.03 144.29-6.09 211.44 12.15 20.87 5.67 99.72 37.21 109.31 53.65l-1.33 1.3c-25.4-11.66-47.59-27.98-74.15-38.54-28.01-11.12-54.96-17.07-84.93-19.64-38.91-3.34-79.27-1.39-118.36-1.42l-212.38-.08-165.86-.21c-31.75-.05-65.1-2.04-96.6 1.7-36.09 4.3-69.54 18.31-102.64 32.51"/><path fill="#0E0515" d="m3241.17 3394.1 1.35 4.33c-23.99 38.66-117.01 84.23-161.52 94.65-52.97 12.39-105.11 11.14-159.02 11.1l-127.85-.11c-24.98-.02-67.79-3.59-91.09.86-6.73 1.28-11.53 4.34-17.66 6.17-.84.26-1.75.09-2.62.13 5.17-6.59 10.8-11.95 19.24-13.68 24.48-5.03 55.5-1.29 80.76-1.23l136.22.14c59.76.02 119.88 3.47 177.85-13.87 56.22-16.82 102.27-48.51 144.34-88.49"/><path fill="#595858" d="m2626.25 2878.88 61.49.27 153.31 412.9-129.13.02c-5.5-16.79-13.82-56.5-24.57-68.87-2.38-2.73-6.29-2.08-9.68-2.44h-61.76c-8.27 23.83-16.72 47.6-25.34 71.31l-130.43.04c57.45-136.72 106.54-277.48 166.11-413.23"/><path fill="#FCFCFD" d="M2650.17 2914.7c4.23.21 7.74.8 11.83 1.94 10.7 14.4 30.21 77.14 37.4 96.51l90.2 242.6-51.75.02-23.33-70.02-62.54.2-61.9-.18-24.28 70.02-52.1-.02c43.04-114.42 90.63-227.72 136.47-341.07"/><path fill="#595858" d="M2652.62 3008.87c8.52 6.84 42.19 122.01 48.52 141.84l-46.64.14-51.76-.06z"/><path fill="#595858" d="m2851.88 2883.56 118.3.07-.09 408.3-118.06.12c-1.44-136.11-.35-272.36-.15-408.49"/><path fill="#FCFCFD" d="m2887.49 2919.63 46.7-.2c1.18 112.1.67 224.33.02 336.43l-46.42-.06c-3.04-111.79-1.42-224.34-.3-336.17"/><path fill="#362a4a" d="M2035.33 728.512c16.02-3.287 30.44-.006 44.69 7.493 33.23 17.48 65.33 37.829 97.65 56.944L2349.7 894.08l117.67 67.724c20.83 12.116 43.55 23.579 62.46 38.456 16.16 12.71 25.65 24.06 31.75 44.29 12.05 39.87 5.84 113.72 5.78 156.82l-1.05 230.99c-.23 46.4 3.11 93.69.82 139.93-.57 11.51-.95 23.02-6.86 33.26-6.44 11.17-14.46 20.55-24.92 28.14-26.88 19.49-57.81 35.65-86.32 52.71a14120 14120 0 0 1-170.53 101.1l-124.31 72.95c-29.57 17.44-61.75 41.2-94.84 50.97-13.9 1.75-24.36 1.04-37.46-4.22-26.71-10.71-52.87-28.93-77.85-43.47-52.21-30.32-104.26-60.93-156.13-91.82l-145.97-84.98c-25.84-15.03-53.7-29.23-77.83-46.82-13.08-9.54-28.76-25.44-34.65-41.03-4.09-10.81-5.51-23.69-6.02-35.22-1.41-31.54-.22-63.6-.13-95.18l.41-170.65.42-144.82c.08-26.76-.9-54.11.96-80.79.89-12.74 2.23-28.1 8.01-39.56 6.76-13.42 17.43-25.66 29.59-34.422 18.2-13.112 39.04-23.821 58.45-35.077l118.54-68.051 158.58-92.483c36.97-21.897 98.01-62.533 137.06-74.315"/><path fill="#86CA74" d="M2038.64 791.936c3.17.001 6.22-.014 9.36.462 7.96 1.207 16.08 6.014 23.1 9.801 24.51 13.209 48.11 28.347 72.2 42.333l169.47 98.659c56.03 32.757 115.58 62.839 169.52 98.729 9.07 6.04 14.92 11.64 21.07 20.65 3.52 22.59 2.3 46.37 2.32 69.17v104.56c-.01 103.41 2.28 207.36-.1 310.71-.17 7.71.59 27.18-3.44 33.45-5.44 8.46-22.28 18.57-30.88 24-25.76 16.25-53.02 30.62-79.28 46.13l-191.01 112.68c-30.78 18.08-123.87 78.17-149.41 85.16-3.2.01-6.41-.03-9.59-.37-6.81-.73-12.71-3.42-18.69-6.61-62.87-33.54-124.63-74.04-186.12-110.49-71.7-42.51-145.28-82.69-215.93-126.84-7.83-4.9-28.33-16.03-32.77-24.12-6.36-11.61-5.94-441.19-3.42-490.69.55-10.68 1.85-21.53 5.06-31.75 17.23-15.71 39.91-27 59.97-38.76l86.86-50.985a17570 17570 0 0 1 195.05-115.146c34.89-20.497 69.9-43.85 106.66-60.733"/><path fill="#21292A" d="m2197.95 1113.7 3.23-2.98c12.04 3.96 44 14.77 50.8 25.2 3.02 4.64 4.03 11.65 4.5 17.03 2.09 23.64-.26 48.65-.32 72.44-.1 51.3.68 102.69-1.26 153.95-16.28 14.02-79.51 53.44-100.22 51.87-10.09-.77-73.14-35.58-81.85-44.2-1.86-1.85-2.08-2.64-3.1-4.71l1.32-1.81c2.47-25.47-4-70.54 2.74-92.5 6.72-21.93 62.05-46.45 82.09-57.86l36.6 19.04c-.1-40.77-3.46-84.64.31-124.99.57-6.13.48-6.5 5.16-10.48"/><path fill="#95DE7B" d="m2197.95 1113.7 3.23-2.98c12.04 3.96 44 14.77 50.8 25.2 3.02 4.64 4.03 11.65 4.5 17.03 2.09 23.64-.26 48.65-.32 72.44-.1 51.3.68 102.69-1.26 153.95-16.28 14.02-79.51 53.44-100.22 51.87-10.09-.77-73.14-35.58-81.85-44.2-1.86-1.85-2.08-2.64-3.1-4.71l1.32-1.81c28.45 17.56 57.96 33.66 87.13 49.98 31.49-15.82 62.17-33.23 91.9-52.15l-.11-239.77c-17.42-8.1-34.77-16.39-52.02-24.85"/><path fill="#86CA74" d="M2164.2 1293.52c9.24 1.91 18.29 9.96 25.82 15.41l-.34 36.59c-10.44 7.04-21.95 12.99-32.89 19.27l-6.8 1.47c-7.25-2.12-12.59-7.87-18.12-12.8l.15-39c10.08-7.86 21.3-14.26 32.18-20.94"/><path fill="#4E8445" d="M1956.36 1461.28c28.48-18.7 60.33-37.97 91.15-52.42 30.33 14.24 59.13 34.57 88.67 50.77l4.51 3.11c2.14 15.96 4.63 111.5-3.31 120.24-1.79 1.97-4.55 3.18-6.89 4.33-18.89 13.94-60.08 31.61-82.44 43.13-24.78-11.23-71.01-36.44-89.87-54.89-3.09-37.77-1.72-76.36-1.82-114.27"/><path fill="#86CA74" d="M2048.41 1429.99c26.09 8.67 50.73 30.06 75.13 43.21-.08 32.42 1.04 64.82.7 97.26a3777 3777 0 0 0-72.23 37.71c-25.18-6.11-53.13-25.99-75.84-38.47-1.37-33.86-.71-67.87-.63-101.75 24.13-12.92 48.71-25.04 72.87-37.96"/><path fill="#4E8445" d="M2016.73 1481.65c13.75-3.98 27.99-7.76 42.01-10.66 8.29-1.71 20.67-3.95 28.17.91.54 3.47 1.15 3.7-.62 7-3.07 5.7-9.27 12.24-15.53 14.06-2.2-1.88-4.05-3.17-6.55-4.74-7.65 2.95-6.89 9.93-14.16 13.13l-3.88-3.67c-2.76 1.03-4.71.8-5.84 3.79-5.58 14.85-.43 41.25 1.14 56.97 10.18-5.47 25.73-7.37 34.43-14.25 5.52-4.36 8.2-11.02 8.51-17.93.27-5.67-1.23-9.26-4.85-13.59-6.3-2.17-6.46-1.59-12.78.8l-1.25-1.77c.43-1.61.99-4.04 1.86-5.42 2.95-4.68 6.61-5.12 11.51-6.58 3.99.54 5.98 1.08 9.31 3.55 7.88 5.86 12.03 18.61 12.82 27.98.68 8.06-1.68 15.82-7.06 21.94-13.24 15.05-39.28 13.87-57.44 14.47-6.35 5.78-14.01 9.83-21.35 14.22 1.03-33.39 1.55-66.8 1.55-100.21"/><path fill="#95DE7B" d="m2041.47 1558.44-5.72 1.96-2.38-1.54c-1.19-17.53-5.64-49.92.68-65.77 4.89-3.06 7.02-4.46 13.01-4.38l1.79 2.92-2.68 6.05c-2.76 1.03-4.71.8-5.84 3.79-5.58 14.85-.43 41.25 1.14 56.97"/><path fill="#95DE7B" d="M1940.08 1223.44c.93-.05 1.87-.14 2.8-.15 15.47-.15 73.39 35.38 84.37 47.35 9.62 10.48 4.8 96.38 3.79 114.61-14.45 15.21-59.99 45-79.2 50.6-27.36-8.27-73.39-35.15-95.08-53.68-2.42-34.71-1.39-70.46-.71-105.28l1.6-1.78c19.36-21.94 56.16-38.94 82.43-51.67"/><path fill="#4E8445" d="M1945.71 1227.57c26.9 11.81 53.3 30.46 78.68 45.52 2.18 37.4 2.12 75.28.91 112.72-14.85 10.12-61.71 44.65-76.17 42.64-29.41-13.88-60.25-31.91-87.3-49.93.34-33.99-.4-67.96.21-101.96 24.07-19 55.72-36.59 83.67-48.99"/><path fill="#21292A" d="M1729.06 1220.69c14.3 6.02 88.91 45 95.37 55.37 7.55 12.11 5.34 113.77.28 131.02-5.53-6.07-1.18-112.35-3.49-129.69-4.93 42.85-.57 89.14-1.2 132.44-19.81-10.68-39.76-21.4-58.79-33.44l-.66-65.3c-9.63-6.81-19.09-13.22-29.43-18.93-10.74 7.15-21.19 14.15-30.93 22.64-.38 21.12.21 42.73-1.9 63.74-17.61 12.08-35.89 23.85-55.33 32.78l-3.11-1.13c-3.21 1.23-1.33.8-5.75.74-6.01-18.92-1.55-109.78.59-133.62 23.61-19.96 65.66-43.9 94.35-56.62"/><path fill="#95DE7B" d="M1729.06 1220.69c14.3 6.02 88.91 45 95.37 55.37 7.55 12.11 5.34 113.77.28 131.02-5.53-6.07-1.18-112.35-3.49-129.69l-91.62-51.93c-29.25 15.5-60.35 32.24-87.77 50.82-1.38 44.63-.58 89.3-1.96 133.91-3.21 1.23-1.33.8-5.75.74-6.01-18.92-1.55-109.78.59-133.62 23.61-19.96 65.66-43.9 94.35-56.62"/><path fill="#21292A" d="M2365.93 1227.46c12.08 1.61 85.02 41.92 89.41 50.26 3.08 5.84 1.4 19.23-.37 25.26-4.2 14.24-34.63 26.77-47.07 33.74l-.01-24.42c-10.43-7.92-20.41-13.85-32.58-18.64-8.61 5.29-16.84 11.17-25.13 16.94l-.47 43.24c24.88 19.7 36.85 9.49 55.31 21.92 2.75 1.46 6.09 3 8.46 5.02 4.34 3.69 5.18 6.69 5.83 12.15-5.1 17.53-33.88 29.26-49.13 38.11-28.15-15.76-58.74-30.37-83.85-50.66-.2-24.35-4.86-70.45.03-92.28 5.29-23.55 58.43-48.06 79.57-60.64"/><path fill="#362a4a" d="M374.907 2029.75c22.612-1.06 41.948 16.1 43.593 38.67 1.645 22.58-15.001 42.35-37.528 44.59a41.75 41.75 0 0 1-38.457-17.81 41.74 41.74 0 0 1-3.08-42.26 41.76 41.76 0 0 1 35.472-23.19"/><path fill="#362a4a" d="M474.878 3082.14a40.03 40.03 0 0 1 40.993 14.04c10.828 13.72 11.498 32.88 1.654 47.32a40 40 0 0 1-24.462 16.53c-21.373 4.69-42.551-8.66-47.527-29.97s8.1-42.66 29.342-47.92"/><path fill="#362a4a" d="M2283.53 2275.25a39.7 39.7 0 0 1 31.71 10.1 39.75 39.75 0 0 1 12.92 30.67c-.64 18.98-14.6 34.85-33.34 37.91a39.76 39.76 0 0 1-37.49-14.47 39.76 39.76 0 0 1-5.71-39.78 39.76 39.76 0 0 1 31.91-24.43"/><path fill="#362a4a" d="M1784.18 397.103a39.62 39.62 0 0 1 35.72 6.083 39.62 39.62 0 0 1 15.1 39.372 39.63 39.63 0 0 1-28.93 30.674c-20.79 5.386-42.09-6.77-48.02-27.409s5.66-42.246 26.13-48.72"/><path fill="#362a4a" d="M3626.69 2912.79a38.5 38.5 0 0 1 32.35 5.94c12 8.61 18.01 23.34 15.47 37.89a38.49 38.49 0 0 1-27.4 30.41c-20.58 5.86-41.98-6.19-47.65-26.82-5.68-20.62 6.55-41.92 27.23-47.42"/></svg>
